<svg xmlns="http://www.w3.org/2000/svg" viewBox="0 0 1900 1900" width="1900" height="1900"><g transform="translate(81.0 653.0) rotate(0.0 352.0 112.0) scale(1.3639710156159182 1.361784910936835)"><svg width="516.14" height="164.49" viewBox="0 0 516.14 164.49"><linearGradient id="a" gradientUnits="userSpaceOnUse" x1="0" x2="516.14" y1="82.245" y2="82.245"><stop offset=".013" stop-color="#5D5D5F" stop-opacity=".35"/><stop offset="1" stop-color="#474649"/></linearGradient><rect fill="url(#a)" height="164.49" rx="20.707" width="516.14"/><g fill="#444"><path d="M163.954 119.05a5 5 0 0 1-5-5V50.439a5 5 0 1 1 10 0v63.611a5 5 0 0 1-5 5z"/><path d="M193.045 109.736a4.982 4.982 0 0 1-3.054-1.044l-58.189-44.98a4.999 4.999 0 0 1-.898-7.014 4.999 4.999 0 0 1 7.014-.898l58.189 44.98a4.999 4.999 0 0 1-3.062 8.956z"/><path d="M134.863 109.736a5 5 0 0 1-3.062-8.956L189.99 55.8a5 5 0 0 1 6.116 7.912l-58.189 44.98a4.974 4.974 0 0 1-3.054 1.044zm-65.025 9.314a5 5 0 0 1-5-5V50.439a5 5 0 1 1 10 0v63.611a5 5 0 0 1-5 5z"/><path d="M98.928 109.735a4.976 4.976 0 0 1-3.054-1.044l-58.189-44.98a5 5 0 0 1 6.116-7.912l58.188 44.98a4.999 4.999 0 0 1-3.062 8.956z"/><path d="M40.746 109.735a5 5 0 0 1-3.061-8.956l58.189-44.98a5 5 0 0 1 6.116 7.912l-58.188 44.98a4.979 4.979 0 0 1-3.055 1.044zm217.324 9.315a5 5 0 0 1-5-5V50.439a5 5 0 1 1 10 0v63.611a5 5 0 0 1-5 5z"/><path d="M287.161 109.736a4.982 4.982 0 0 1-3.054-1.044l-58.189-44.98a4.999 4.999 0 0 1-.898-7.014 4.999 4.999 0 0 1 7.014-.898l58.189 44.98a4.999 4.999 0 0 1-3.062 8.956z"/><path d="M228.979 109.736a5 5 0 0 1-3.062-8.956l58.189-44.98a5 5 0 0 1 6.116 7.912l-58.189 44.98a4.974 4.974 0 0 1-3.054 1.044zm123.208 9.314a5 5 0 0 1-5-5V50.439a5 5 0 1 1 10 0v63.611a5 5 0 0 1-5 5z"/><path d="M381.277 109.736a4.982 4.982 0 0 1-3.054-1.044l-58.189-44.98a4.999 4.999 0 0 1-.898-7.014 4.999 4.999 0 0 1 7.014-.898l58.189 44.98a4.999 4.999 0 0 1-3.062 8.956z"/><path d="M323.096 109.736a5 5 0 0 1-3.062-8.956l58.189-44.98a5 5 0 0 1 6.116 7.912l-58.189 44.98a4.974 4.974 0 0 1-3.054 1.044zm123.207 9.314a5 5 0 0 1-5-5V50.439a5 5 0 1 1 10 0v63.611a5 5 0 0 1-5 5z"/><path d="M475.394 109.736a4.982 4.982 0 0 1-3.054-1.044l-58.189-44.98a4.999 4.999 0 0 1-.898-7.014 4.999 4.999 0 0 1 7.014-.898l58.189 44.98a4.999 4.999 0 0 1-3.062 8.956z"/><path d="M417.212 109.736a5 5 0 0 1-3.062-8.956l58.189-44.98a5 5 0 0 1 6.116 7.912l-58.189 44.98a4.974 4.974 0 0 1-3.054 1.044z"/></g></svg></g><g transform="translate(567.0 68.0) rotate(0.0 246.0 316.0) scale(1.355386836218581 1.354726000235791)"><svg width="362.996" height="466.515" viewBox="0 0 362.996 466.515"><linearGradient id="b" gradientUnits="userSpaceOnUse" x1="-30.244" x2="312.752" y1="233.257" y2="233.257"><stop offset="0" stop-color="#272526"/><stop offset="1" stop-color="#363033" stop-opacity=".35"/></linearGradient><rect fill="url(#b)" height="446.515" rx="25" width="342.996" x="10" y="10"/><path d="M327.996 10c13.807 0 25 11.193 25 25v396.515c0 13.807-11.193 25-25 25H35c-13.807 0-25-11.193-25-25V35c0-13.807 11.193-25 25-25zm0-10H35C15.701 0 0 15.701 0 35v396.515c0 19.299 15.701 35 35 35h292.996c19.299 0 35-15.701 35-35V35c0-19.299-15.701-35-35-35z" fill="#bf78a9" opacity=".6"/><g fill="#302122"><circle cx="181.498" cy="375.938" r="27.235"/><path d="M181.498 420.335c-24.48 0-44.397-19.917-44.397-44.397s19.917-44.397 44.397-44.397 44.397 19.917 44.397 44.397-19.917 44.397-44.397 44.397zm0-83.795c-21.724 0-39.397 17.674-39.397 39.397s17.674 39.397 39.397 39.397 39.397-17.674 39.397-39.397-17.674-39.397-39.397-39.397zm-3.397-73.258a5.001 5.001 0 0 1-4.907-5.986c2.269-11.292 3.418-23.436 3.418-36.091a5 5 0 1 1 10 0c0 13.315-1.216 26.12-3.613 38.06a5.003 5.003 0 0 1-4.897 4.017z"/><path d="M201.612 259.004a5.002 5.002 0 0 1-4.949-5.756c1.561-10.216 2.352-20.997 2.352-32.043 0-9.597-7.807-17.404-17.403-17.404s-17.404 7.807-17.404 17.404c0 10.835-.91 21.293-2.705 31.082a4.998 4.998 0 0 1-5.819 4.016 5 5 0 0 1-4.017-5.82c1.687-9.195 2.541-19.046 2.541-29.278 0-15.11 12.294-27.404 27.404-27.404s27.403 12.293 27.403 27.404c0 11.55-.83 22.839-2.467 33.553a5.001 5.001 0 0 1-4.937 4.246z"/><path d="M226.131 238.45a5 5 0 0 1-4.998-5.24c.189-3.938.285-7.977.285-12.004 0-21.95-17.857-39.807-39.807-39.807s-39.808 17.857-39.808 39.807c0 3.934-.14 7.858-.415 11.665a4.998 4.998 0 0 1-5.349 4.625 5 5 0 0 1-4.626-5.348c.259-3.567.39-7.249.39-10.942 0-27.464 22.344-49.807 49.808-49.807s49.807 22.343 49.807 49.807c0 4.188-.1 8.388-.297 12.485a5 5 0 0 1-4.99 4.76z"/><path d="M243.086 199.036a5 5 0 0 1-4.573-2.974c-9.991-22.518-32.326-37.068-56.901-37.068s-46.908 14.549-56.9 37.065a5 5 0 0 1-9.141-4.057c11.596-26.126 37.518-43.008 66.041-43.008s54.449 16.883 66.042 43.013a5 5 0 0 1-4.567 7.029z"/><path d="M118.274 162.868a5 5 0 0 1-3.535-8.535c17.889-17.89 41.638-27.742 66.873-27.742 25.107 0 48.771 9.768 66.633 27.503a5 5 0 0 1 .024 7.071 4.998 4.998 0 0 1-7.071.025c-15.975-15.863-37.137-24.599-59.586-24.599-22.563 0-43.802 8.812-59.803 24.813a4.984 4.984 0 0 1-3.535 1.464z"/><path d="M127.975 127.886a5 5 0 0 1-2.408-9.386c17.096-9.363 36.475-14.313 56.044-14.313 19.449 0 38.724 4.892 55.739 14.147a5 5 0 0 1-4.777 8.785c-15.555-8.46-33.177-12.932-50.962-12.932-17.895 0-35.613 4.524-51.239 13.083a4.987 4.987 0 0 1-2.397.616zM157.771 93.9a5.002 5.002 0 0 1-.879-9.922c16.207-2.914 33.227-2.914 49.438 0a5 5 0 1 1-1.768 9.843c-15.049-2.704-30.859-2.703-45.9 0-.299.054-.597.08-.891.08z"/></g><path d="M295.923 291.957H240.99a5 5 0 1 1 0-10h49.933v-49.933a5 5 0 1 1 10 0v54.933a5 5 0 0 1-5 5zM67.073 118.039a5 5 0 0 1-5-5V58.106a5 5 0 0 1 5-5h54.933a5 5 0 1 1 0 10H72.073v49.933a5 5 0 0 1-5 5zm54.932 173.918H67.072a5 5 0 0 1-5-5v-54.933a5 5 0 1 1 10 0v49.933h49.933a5 5 0 1 1 0 10zm173.918-173.918a5 5 0 0 1-5-5V63.106H240.99a5 5 0 1 1 0-10h54.933a5 5 0 0 1 5 5v54.933a5 5 0 0 1-5 5z" fill="#646464"/></svg></g><g transform="translate(722.0 285.0) rotate(0.0 549.0 794.0) scale(1.3568990531365623 1.3545003872438135)"><svg width="809.198" height="1172.388" viewBox="0 0 809.198 1172.388"><linearGradient id="d" gradientUnits="userSpaceOnUse" x1="605.947" x2="536.953" y1="1192.295" y2="957.407"><stop offset=".013" stop-color="#383937"/><stop offset=".994"/></linearGradient><linearGradient id="e" gradientUnits="userSpaceOnUse" x1="469.623" x2="469.623" y1="1235.773" y2="927.219"><stop offset=".013" stop-color="#383937"/><stop offset="1"/></linearGradient><linearGradient id="c" gradientUnits="userSpaceOnUse" x1="119.75" x2="253.835" y1="611.32" y2="771.518"><stop offset=".013"/><stop offset="1" stop-color="#4D4A46"/></linearGradient><linearGradient xmlns:xlink="http://www.w3.org/1999/xlink" id="f" x1="749.996" x2="675.541" xlink:href="#c" y1="424.337" y2="765.254"/><clipPath id="g"><path d="M410.267 131.71c4.326 3.67 15.232 4.439 20.863 1.361 5.749-3.142 11.664-8.543 15.846-14.88-11.182-4.969-26.675-7.51-33.631-3.63-3.858 2.152-3.856 12.616-3.078 17.149z"/></clipPath><linearGradient xmlns:xlink="http://www.w3.org/1999/xlink" id="h" x1="564.445" x2="476.896" xlink:href="#c" y1="344.701" y2="877.392"/><linearGradient id="i" gradientUnits="userSpaceOnUse" x1="604.051" x2="474.907" y1="-2.175" y2="221.113"><stop offset=".013" stop-color="#DD69CE"/><stop offset=".923" stop-color="#6C3071"/></linearGradient><linearGradient xmlns:xlink="http://www.w3.org/1999/xlink" id="j" x1="240.799" x2="381.768" xlink:href="#c" y1="504.115" y2="749.306"/><path d="M463.147 932.389c34.587-8.134 206.597-37.172 237.7-50.28 1.131 107.9-2.14 290.28-2.14 290.28H414.088l49.059-239.999z" fill="url(#d)"/><path d="m562.019 1172.388 3.819-129.299 59.477-130.25c-79.335 18.657-211.044 25.07-310.368 15.189-2.839 105.199 1.157 171.553 1.348 244.36h245.723" fill="url(#e)"/><path d="M256.92 709.329c-18.678-62.524-41.631-159.607-57.202-183.143s-50.811-50.336-50.811-50.336l-78.84 21.883c-8.849 14.752-27.323 73.329-12.571 122.5 9.22 30.732 26.032 107.486 59.278 165.242 21.402 37.181 54.526 65.198 107.925 61 56.281-4.424 42.671-102.166 32.221-137.147z" fill="url(#c)"/><path d="M314.971 890.312c-1.672 19.373-1.282 36.057-.469 55.18 169.688 27.619 289.25 24.079 386.598-35.961.939-15.636 1.113-34.235.58-52.847-126.247 42.498-258.704 50.648-386.709 33.629z" fill="#4D4A46"/><path d="M713.381 346.96c39.946 36.486 106.519 336.958 94.356 413.124-10.148 63.546-72.195 59.95-87.024 58.573-14.829-1.378-89.367-18.202-99.525-114.229-10.159-96.026-12.486-238.326-1.167-285.713 14.88-62.296 93.361-71.755 93.361-71.755z" fill="url(#f)"/><rect fill="#bf5247" height="200.353" rx="52.494" transform="matrix(.97140841 -.23741463 .23741463 .97140841 -48.014 129.972)" width="104.988" x="463.129" y="164.159"/><path d="M422.141 34.534c-15.255 15.095-31.302 39.61-25.477 97.263-3.8 10.187-19.747 23.992-32.283 41.996l23.88 12.94s4.593 43.434 14.084 49.62c12.351 8.051 54.937 4.108 97.792-3.3 30.262-5.231 44.215-22.585 56.35-39.462 27.875-38.77 54.179-111.143 13.087-154.743-40.682-43.165-121.948-29.529-147.431-4.313z" fill="#e58076"/><path d="M452.405 98.349c-.362 0-.731-.079-1.08-.247-13.379-6.424-29.123-12.08-44.464-5.317a2.5 2.5 0 0 1-2.016-4.575c17.194-7.581 34.239-1.531 48.644 5.385a2.5 2.5 0 0 1-1.084 4.754zm-51.972 107.35a2 2 0 0 1 0-4c17.697 0 30.303-3.192 42.366-19.509a2.001 2.001 0 0 1 3.217 2.378c-13.01 17.596-27.087 21.131-45.583 21.131z" fill="#1e1e1e"/><path d="M401.029 204.699c-2.848-11.972 14.495-16.159 38.393-15.188 0 0-4.679 15.062-15.068 19.058-14.628 5.626-23.325-3.87-23.325-3.87z" fill="#1e1e1e"/><path d="M410.267 131.71c4.326 3.67 15.232 4.439 20.863 1.361 5.749-3.142 11.664-8.543 15.846-14.88-11.182-4.969-26.675-7.51-33.631-3.63-3.858 2.152-3.856 12.616-3.078 17.149z" fill="#fff"/><g clip-path="url(#g)"><ellipse cx="416.401" cy="126.384" fill="#1e1e1e" rx="9.678" ry="14.998" transform="matrix(.98026427 -.19769156 .19769156 .98026427 -16.767 84.813)"/></g><path d="M409.856 131.708a1.999 1.999 0 0 1-1.984-1.779c-.565-5.071-.737-14.034 4.46-17.091 11.618-6.836 33.133 2.836 37.326 4.844a2 2 0 0 1-1.727 3.607c-10.702-5.124-25.916-9.507-33.571-5.004-2.307 1.357-3.27 6.415-2.514 13.201a2 2 0 0 1-1.991 2.221z" fill="#1e1e1e"/><path d="M324.323 355.267c31.921-26.895 111.937-63.219 152.343-76.921 21.342-7.238 58.425-15.553 89.568-10.183s126.528 60.28 147.147 78.798c22.615 20.31 3.991 124.106 8.287 158.562s22.7 259.288 18.1 289.864c-5.86 38.95-38.087 61.298-38.087 61.298s-53.436 39.041-135.871 49.36c-80.413 10.066-209.368-3.672-250.838-15.732-28.211-8.203-15.966-53.806-17.077-99.132-1.182-48.234-18.434-398.115 26.429-435.914z" fill="url(#h)"/><path d="M434.6 294.787c1.51-13.247 6.012-22.216 8.354-26.122a6.451 6.451 0 0 1 3.774-2.88c47.997-13.629 94.066-21.567 137.523-21.803 2.722-.015 5.15 1.709 6.075 4.269l11.995 33.196c-55.846-4.28-111.753.157-167.721 13.341z"/><path d="M624.299 193.539c-2.237-25.27 4.149-98.013-21.978-137.17C577.483 19.144 543.265 3.032 502.366.211c-36.883-2.544-95.513 17.938-114.357 61.363-5.778 13.314-13.532 38.564-7.34 61.265 2.064-29.036 35.01-67.312 77.819-67.751-1.016 45.775 11.462 96.818 42.136 116.783-3.793-18.063 0-34.068 0-34.068s38.684 13.342 27.987 42.109c-11.875 31.936-43.325 76.451-62.711 99.839 0 0 2.001.089 12.03.009 4.759-3.66 8.754-8.35 11.392-12.302-.328 4.214-2.98 7.703-5.673 12.336 28.955-.402 77.086-7.647 93.691-11.816l-.037-22.243c3.269 7.654 6.467 14.311 10.414 20.714 19.485-3.365 38.481-7.242 50.425-16.795 0 0-11.351-27.971-13.842-56.114z" fill="url(#i)"/><path d="M500.623 137.803s9.936-28.124 31.392-24.23 31.743 35.781 19.037 50.123c-12.706 14.341-30.078 23.341-41.155 13.143-9.345-8.603-9.273-39.035-9.273-39.035z" fill="#e58076"/><path d="M511.206 155.808a2 2 0 0 1-1.622-3.166c8.052-11.212 27.573-24.571 28.4-25.134a2 2 0 0 1 2.252 3.306c-.197.134-19.766 13.525-27.404 24.161a1.997 1.997 0 0 1-1.626.833z" fill="#1e1e1e"/><path d="M529.727 161.657a2.002 2.002 0 0 1-1.754-1.035l-8.751-15.874a2 2 0 0 1 3.504-1.931l8.751 15.874a2 2 0 0 1-1.75 2.966z" fill="#1e1e1e"/><path d="M324.323 355.267c-28.484 24.595-123.22 263.417-142.258 303.484-26.087 54.901-14.598 191.742 42.634 187.725 125.488-8.808 200.783-131.806 223.817-251.689 33.716-175.48-84.568-273.733-124.192-239.52z" fill="url(#j)"/><path d="m68.687 478.635-13.264-50.996 71.599-19.527 10.693 55.327z" fill="#e58076"/><path d="m61.848 468.108 8.22 29.625c29.847 3.46 56.029-4.129 78.84-21.883l-9.969-31.34c-.63-1.98-3.044-2.684-4.664-1.383-17.68 14.201-40.402 21.877-69.535 21.258-1.966-.042-3.417 1.827-2.891 3.723z" fill="#4D4A46"/><path d="M129.595 417.22s8.371-9 9.547-13.856c2.854-11.778 5.334-44.639 6.57-57.075.733-7.373-25.961-67.505-29.776-69.471-3.815-1.967-11.362 8.407-9.488 20.334 1.298 8.265 11.239 34.37 11.239 34.37s-26.293 28.735-22.074 50.565c4.219 21.831 33.982 35.132 33.982 35.132z" fill="#e58076"/><path d="M127.939 343.875c.078 5.566-.509 15.433-3.093 21.051l-16.512-81.712a17.729 17.729 0 0 1 2.918-4.527c7.914 17.753 16.535 54.232 16.687 65.189z" fill="#bf5247"/><path d="M3.393 326.901c-2.313 7.286-5.187 16.231-1.931 22.744s11.967 21.148 18.197 22.545 10.382-3.845 11.863-8.266c1.48-4.422-10.02-22.146-10.02-22.146-5.767-9.337-8.485-17.301-18.109-14.876z" fill="#e58076"/><path d="M58.722 440.322c-8.839-6.043-17.262-9.806-22.239-26.159-4.977-16.352-14.575-47.28-10.665-56.878s87.639-58.768 90.293-49.057c5.173 18.922 14.265 117.238 14.265 117.238l-71.655 14.856z" fill="#e58076"/><path d="M116.112 308.228c-4.587-16.175-10.876-34.677-15.153-45.523-3.745-9.498-28.271-4.639-25.59 6.303s9.503 51.342 9.503 51.342z" fill="#e58076"/><path d="M76.821 275.7c8.642 15.641 18.818 35.414 21.227 50.792-1.192-1.53-4.38-7.189-4.38-7.189-4.844-3.424-9.01-7.159-11.06-12.108z" fill="#bf5247"/><path d="M100.959 262.705c-6.632-17.677-20.161-49.568-26.688-57.736s-17.661.669-13.588 13.386c3.625 11.321 14.686 50.653 14.686 50.653 10.276 9.026 18.238 3.385 25.59-6.303zm-7.314 56.63s-21.543-36.823-29.058-42.083-23.797 3.757-25.3 13.527c-1.503 9.769 25.801 45.34 25.801 45.34l28.557-16.783z" fill="#e58076"/><path d="M41.52 285.476c24.916 19.218 37.347 52.891 37.347 52.891l-7.231-6.049c-4.846-2.129-11.811-6.535-18.851-15.605-12.808-16.503-13.471-23.867-13.471-23.867-.371-2.504.684-5.326 2.205-7.37z" fill="#bf5247"/><path d="M71.665 332.253s-23.86-37.467-34.632-41.224c-10.771-3.757-18.286 16.167-17.284 23.296.857 6.099 14.969 22.893 25.958 33.316z" fill="#e58076"/><path d="M21.15 304.987c14.203 10.073 24.512 25.73 32.685 46.459l-5.171-5.559-28.916-31.563c-.267-2.778.38-5.973 1.402-9.338zm4.54 66.401-.785-8.707s-6.337-11.235-17.4-24.315c0 0 3.582 17.358 7.017 22.008 3.891 5.267 11.169 11.014 11.169 11.014z" fill="#bf5247"/><path d="M48.665 345.887s-23.656-34.819-30.67-34.068S5.727 319.423 3.393 326.9c-2.241 7.179 23.369 38.024 23.369 38.024l21.902-19.038z" fill="#e58076"/><g fill="#575553"><path d="M296.945 829.481a2.5 2.5 0 0 1-1.024-4.782c83.063-37.291 150.126-167.886 154.593-259.738a2.508 2.508 0 0 1 2.618-2.375 2.5 2.5 0 0 1 2.376 2.619c-4.537 93.298-72.874 226.047-157.54 264.056-.332.149-.68.221-1.022.221zm154.292-344.432a2.5 2.5 0 0 1-2.493-2.345c-2.676-43.019-42.443-104.471-80.285-124.064a2.5 2.5 0 1 1 2.299-4.441c39.111 20.251 80.212 83.749 82.977 128.194a2.5 2.5 0 0 1-2.497 2.655zM189.609 664.543h-.003a2.497 2.497 0 0 1-2.497-2.498c0-1.353.324-33.744 28.494-87.11a2.5 2.5 0 0 1 4.422 2.334c-27.521 52.135-27.915 84.459-27.916 84.779a2.5 2.5 0 0 1-2.5 2.495zm531.437-166.099-.081-.001a2.5 2.5 0 0 1-2.42-2.578c.351-11.075.465-23.566.587-36.79.246-26.693.5-54.295 2.678-76.2a2.505 2.505 0 0 1 2.734-2.241 2.5 2.5 0 0 1 2.24 2.735c-2.154 21.681-2.407 49.169-2.652 75.752-.122 13.252-.237 25.771-.589 36.902a2.5 2.5 0 0 1-2.497 2.421zm12.399 322.683a2.5 2.5 0 0 1-2.367-3.307c.029-.089 3.046-9.003 6.252-22.993 6.523-28.464-7.77-193.92-13.504-241.269a2.5 2.5 0 0 1 2.181-2.783 2.492 2.492 0 0 1 2.782 2.181c5.948 49.104 20.177 213.48 13.414 242.987-3.269 14.265-6.267 23.118-6.393 23.488a2.5 2.5 0 0 1-2.366 1.694zm-233.729 90.419c-18.875 0-39.374-.49-59.747-1.491-57.795-2.841-103.671-9.182-125.866-17.397a2.5 2.5 0 0 1 1.736-4.69c49.9 18.473 201.833 21.897 249.644 15.598 58.945-7.767 111.132-30.774 134.675-48.864a2.5 2.5 0 0 1 3.047 3.965c-24.056 18.483-77.21 41.97-137.069 49.856-15.126 1.993-39.063 3.023-66.419 3.023z"/></g><path d="M567.105 1117.954a2.5 2.5 0 0 1-2.5-2.5v-68.205a2.5 2.5 0 1 1 5 0v68.205a2.5 2.5 0 0 1-2.5 2.5z" fill="#373936"/><path d="M564.605 1115.454h5v56.934h-5zm-37.729-63.501c-.527 0-1.052 0-1.585-.003a2.5 2.5 0 0 1 .008-5h.008c36.78.124 59.602-3.869 78.774-13.764a2.5 2.5 0 0 1 2.293 4.443c-19.663 10.146-42.778 14.323-79.498 14.323z" fill="#373936"/></svg></g><g transform="translate(437.0 832.0) rotate(0.0 93.0 138.0) scale(1.3673554903733762 1.3560454570020588)"><svg width="136.029" height="203.533" viewBox="0 0 136.029 203.533"><linearGradient id="k" gradientUnits="userSpaceOnUse" x1="0" x2="136.029" y1="101.766" y2="101.766"><stop offset=".013" stop-color="#4B4B4D" stop-opacity=".35"/><stop offset="1" stop-color="#5D5D60"/></linearGradient><path d="M127.151 84.064h-10.858V41.549C116.293 18.639 94.635 0 68.014 0S19.736 18.639 19.736 41.549v42.515H8.878a8.877 8.877 0 0 0-8.877 8.877v101.714a8.877 8.877 0 0 0 8.877 8.877h118.274a8.877 8.877 0 0 0 8.877-8.877V92.941a8.877 8.877 0 0 0-8.877-8.877zM35.715 41.549c0-14.099 14.489-25.57 32.299-25.57s32.299 11.471 32.299 25.57v42.515H35.715z" fill="url(#k)"/><path d="M84.056 135.174c0-8.86-7.182-16.042-16.042-16.042s-16.042 7.182-16.042 16.042c0 5.481 2.753 10.315 6.948 13.209l-3.121 20.082h24.43l-3.121-20.082c4.195-2.894 6.948-7.728 6.948-13.209z" fill="#5F5F60"/></svg></g></svg>