<svg width="179" height="213" viewBox="0 0 179 213" fill="none" xmlns="http://www.w3.org/2000/svg">
<rect x="33.4086" y="48.3254" width="97.4892" height="95.1114" fill="white"/>
<path d="M86.1634 0.768326C85.2473 1.22639 82.9153 3.01701 80.9581 4.76598C69.3816 15.3015 56.5558 22.3806 41.5646 26.6281C33.028 29.0434 20.1605 30.7507 10.6661 30.7924C4.75292 30.834 2.67081 31.7501 0.880199 35.1648C0.00571297 36.7888 0.00571299 37.2469 0.00571299 65.98C-0.0359292 97.5448 0.0889973 100.127 2.50424 115.326C10.0415 162.715 35.7347 193.488 82.5822 211.145C89.5364 213.768 89.4531 213.768 99.4056 209.812C112.898 204.482 125.848 197.111 135.801 189.074C141.214 184.702 149.834 175.79 154.04 170.21C165.325 155.219 172.446 137.396 176.111 114.91C178.442 100.501 178.609 97.4615 178.567 65.98C178.567 36.9138 178.567 36.8305 177.651 35.0815C176.569 32.9994 175.069 31.7501 173.029 31.2504C172.196 31.0422 168.448 30.7507 164.659 30.6258C137.716 29.7097 115.521 21.173 97.615 4.76598C92.4097 0.0187683 89.7446 -0.897354 86.1634 0.768326ZM124.974 78.9307C127.681 81.804 129.929 84.3442 130.013 84.5108C130.096 84.719 119.519 94.838 106.568 107.081C82.6238 129.609 80.7915 131.15 77.835 131.15C74.8367 131.108 73.5875 130.026 61.5945 116.742C55.2233 109.663 49.6848 103.5 49.2684 103.042C48.5189 102.209 48.6438 102.084 54.0156 97.3366C57.0555 94.6715 59.6373 92.4228 59.8039 92.3395C59.9705 92.2979 64.1347 96.7119 69.0901 102.209C74.0455 107.705 78.3347 112.244 78.5845 112.286C78.876 112.328 88.1622 103.666 99.2807 93.0474C110.399 82.4287 119.602 73.7254 119.769 73.7254C119.894 73.6838 122.226 76.0574 124.974 78.9307Z" fill="#1E1E1E"/>
</svg>
